<mxfile host="app.diagrams.net" modified="2021-07-10T18:59:39.912Z" agent="5.0 (Windows NT 10.0; Win64; x64) AppleWebKit/537.36 (KHTML, like Gecko) Chrome/91.0.4472.124 Safari/537.36" etag="azwe9sNhEUylYUM2M6Ju" version="14.8.1" type="github">
  <diagram id="C5RBs43oDa-KdzZeNtuy" name="Page-1">
    <mxGraphModel dx="1047" dy="446" grid="1" gridSize="10" guides="1" tooltips="1" connect="1" arrows="1" fold="1" page="1" pageScale="1" pageWidth="827" pageHeight="1169" math="0" shadow="0">
      <root>
        <mxCell id="WIyWlLk6GJQsqaUBKTNV-0" />
        <mxCell id="WIyWlLk6GJQsqaUBKTNV-1" parent="WIyWlLk6GJQsqaUBKTNV-0" />
        <mxCell id="cR-O4Dldbzjhlkv826_W-61" value="" style="group" vertex="1" connectable="0" parent="WIyWlLk6GJQsqaUBKTNV-1">
          <mxGeometry x="160" y="40" width="600" height="985" as="geometry" />
        </mxCell>
        <mxCell id="WIyWlLk6GJQsqaUBKTNV-6" value="&lt;br&gt;KEYRead() != KEY4" style="rhombus;whiteSpace=wrap;html=1;shadow=0;fontFamily=Helvetica;fontSize=12;align=center;strokeWidth=1;spacing=6;spacingTop=-4;" parent="cR-O4Dldbzjhlkv826_W-61" vertex="1">
          <mxGeometry x="133" y="185" width="138" height="80" as="geometry" />
        </mxCell>
        <mxCell id="cR-O4Dldbzjhlkv826_W-0" value="" style="ellipse;whiteSpace=wrap;html=1;" vertex="1" parent="cR-O4Dldbzjhlkv826_W-61">
          <mxGeometry x="154" width="96" height="50" as="geometry" />
        </mxCell>
        <mxCell id="cR-O4Dldbzjhlkv826_W-1" value="Start" style="text;html=1;strokeColor=none;fillColor=none;align=center;verticalAlign=middle;whiteSpace=wrap;rounded=0;" vertex="1" parent="cR-O4Dldbzjhlkv826_W-61">
          <mxGeometry x="182" y="15" width="40" height="20" as="geometry" />
        </mxCell>
        <mxCell id="cR-O4Dldbzjhlkv826_W-2" value="&lt;span&gt;wall=170&lt;/span&gt;&lt;br&gt;&lt;span&gt;flag=0&lt;/span&gt;" style="rounded=0;whiteSpace=wrap;html=1;" vertex="1" parent="cR-O4Dldbzjhlkv826_W-61">
          <mxGeometry x="152" y="85" width="100" height="50" as="geometry" />
        </mxCell>
        <mxCell id="cR-O4Dldbzjhlkv826_W-9" value="&lt;div&gt;f = PSDGetRaw(PSD_FRONT)&lt;/div&gt;&lt;div&gt;&amp;nbsp; &amp;nbsp; l = PSDGetRaw(PSD_LEFT)&lt;/div&gt;&lt;div&gt;&lt;span&gt;&amp;nbsp; &amp;nbsp; dis = f - 100&lt;/span&gt;&lt;br&gt;&lt;/div&gt;&lt;div&gt;&amp;nbsp; &amp;nbsp;&amp;nbsp;&lt;/div&gt;" style="rounded=0;whiteSpace=wrap;html=1;" vertex="1" parent="cR-O4Dldbzjhlkv826_W-61">
          <mxGeometry x="110" y="315" width="180" height="60" as="geometry" />
        </mxCell>
        <mxCell id="cR-O4Dldbzjhlkv826_W-12" value="flag == 0" style="rhombus;whiteSpace=wrap;html=1;shadow=0;fontFamily=Helvetica;fontSize=12;align=center;strokeWidth=1;spacing=6;spacingTop=-4;" vertex="1" parent="cR-O4Dldbzjhlkv826_W-61">
          <mxGeometry x="137.5" y="465" width="129" height="80" as="geometry" />
        </mxCell>
        <mxCell id="cR-O4Dldbzjhlkv826_W-15" value="" style="endArrow=classic;html=1;entryX=0.5;entryY=0;entryDx=0;entryDy=0;" edge="1" parent="cR-O4Dldbzjhlkv826_W-61" source="cR-O4Dldbzjhlkv826_W-0" target="cR-O4Dldbzjhlkv826_W-2">
          <mxGeometry width="50" height="50" relative="1" as="geometry">
            <mxPoint x="240" y="115" as="sourcePoint" />
            <mxPoint x="290" y="65" as="targetPoint" />
          </mxGeometry>
        </mxCell>
        <mxCell id="cR-O4Dldbzjhlkv826_W-16" value="" style="endArrow=classic;html=1;exitX=0.5;exitY=1;exitDx=0;exitDy=0;" edge="1" parent="cR-O4Dldbzjhlkv826_W-61" source="cR-O4Dldbzjhlkv826_W-2">
          <mxGeometry width="50" height="50" relative="1" as="geometry">
            <mxPoint x="201.66" y="165" as="sourcePoint" />
            <mxPoint x="202" y="185" as="targetPoint" />
          </mxGeometry>
        </mxCell>
        <mxCell id="cR-O4Dldbzjhlkv826_W-20" value="" style="endArrow=classic;html=1;" edge="1" parent="cR-O4Dldbzjhlkv826_W-61">
          <mxGeometry width="50" height="50" relative="1" as="geometry">
            <mxPoint x="201.76000000000002" y="375" as="sourcePoint" />
            <mxPoint x="202" y="405" as="targetPoint" />
          </mxGeometry>
        </mxCell>
        <mxCell id="cR-O4Dldbzjhlkv826_W-23" value="VWWait()" style="rounded=1;whiteSpace=wrap;html=1;" vertex="1" parent="cR-O4Dldbzjhlkv826_W-61">
          <mxGeometry x="360" y="490" width="80" height="30" as="geometry" />
        </mxCell>
        <mxCell id="cR-O4Dldbzjhlkv826_W-24" value="" style="endArrow=classic;html=1;" edge="1" parent="cR-O4Dldbzjhlkv826_W-61">
          <mxGeometry width="50" height="50" relative="1" as="geometry">
            <mxPoint x="201.66" y="545" as="sourcePoint" />
            <mxPoint x="202.08" y="585" as="targetPoint" />
          </mxGeometry>
        </mxCell>
        <mxCell id="cR-O4Dldbzjhlkv826_W-26" value="&lt;span&gt;flag = 1&lt;/span&gt;" style="rounded=0;whiteSpace=wrap;html=1;" vertex="1" parent="cR-O4Dldbzjhlkv826_W-61">
          <mxGeometry x="148" y="585" width="102" height="40" as="geometry" />
        </mxCell>
        <mxCell id="cR-O4Dldbzjhlkv826_W-27" value="" style="endArrow=classic;html=1;" edge="1" parent="cR-O4Dldbzjhlkv826_W-61">
          <mxGeometry width="50" height="50" relative="1" as="geometry">
            <mxPoint x="201.65999999999994" y="625" as="sourcePoint" />
            <mxPoint x="202.08" y="665.0000000000001" as="targetPoint" />
          </mxGeometry>
        </mxCell>
        <mxCell id="cR-O4Dldbzjhlkv826_W-28" value="f &amp;lt; Wall" style="rhombus;whiteSpace=wrap;html=1;shadow=0;fontFamily=Helvetica;fontSize=12;align=center;strokeWidth=1;spacing=6;spacingTop=-4;" vertex="1" parent="cR-O4Dldbzjhlkv826_W-61">
          <mxGeometry x="143" y="665" width="118" height="70" as="geometry" />
        </mxCell>
        <mxCell id="cR-O4Dldbzjhlkv826_W-29" value="&lt;div&gt;VWTurn(-75,100)&lt;/div&gt;&lt;div&gt;&lt;span&gt;VWWait()&lt;/span&gt;&lt;/div&gt;" style="rounded=1;whiteSpace=wrap;html=1;" vertex="1" parent="cR-O4Dldbzjhlkv826_W-61">
          <mxGeometry x="360" y="680" width="100" height="40" as="geometry" />
        </mxCell>
        <mxCell id="cR-O4Dldbzjhlkv826_W-30" value="" style="endArrow=classic;html=1;" edge="1" parent="cR-O4Dldbzjhlkv826_W-61">
          <mxGeometry width="50" height="50" relative="1" as="geometry">
            <mxPoint x="261.0000000000001" y="699.66" as="sourcePoint" />
            <mxPoint x="360" y="700.08" as="targetPoint" />
          </mxGeometry>
        </mxCell>
        <mxCell id="cR-O4Dldbzjhlkv826_W-31" value="l &amp;gt; 150" style="rhombus;whiteSpace=wrap;html=1;shadow=0;fontFamily=Helvetica;fontSize=12;align=center;strokeWidth=1;spacing=6;spacingTop=-4;" vertex="1" parent="cR-O4Dldbzjhlkv826_W-61">
          <mxGeometry x="143" y="775" width="118" height="70" as="geometry" />
        </mxCell>
        <mxCell id="cR-O4Dldbzjhlkv826_W-32" value="VWCurve(20,10,120)" style="rounded=1;whiteSpace=wrap;html=1;" vertex="1" parent="cR-O4Dldbzjhlkv826_W-61">
          <mxGeometry x="360" y="795" width="120" height="45" as="geometry" />
        </mxCell>
        <mxCell id="cR-O4Dldbzjhlkv826_W-33" value="l &amp;lt; 130" style="rhombus;whiteSpace=wrap;html=1;shadow=0;fontFamily=Helvetica;fontSize=12;align=center;strokeWidth=1;spacing=6;spacingTop=-4;" vertex="1" parent="cR-O4Dldbzjhlkv826_W-61">
          <mxGeometry x="143" y="880" width="118" height="70" as="geometry" />
        </mxCell>
        <mxCell id="cR-O4Dldbzjhlkv826_W-34" value="VWCurve(20,-10,120)" style="rounded=1;whiteSpace=wrap;html=1;" vertex="1" parent="cR-O4Dldbzjhlkv826_W-61">
          <mxGeometry x="360" y="892.5" width="130" height="45" as="geometry" />
        </mxCell>
        <mxCell id="cR-O4Dldbzjhlkv826_W-35" value="" style="endArrow=classic;html=1;" edge="1" parent="cR-O4Dldbzjhlkv826_W-61">
          <mxGeometry width="50" height="50" relative="1" as="geometry">
            <mxPoint x="201.6599999999999" y="735.0000000000001" as="sourcePoint" />
            <mxPoint x="202.07999999999998" y="775.0000000000001" as="targetPoint" />
          </mxGeometry>
        </mxCell>
        <mxCell id="cR-O4Dldbzjhlkv826_W-36" value="" style="endArrow=classic;html=1;" edge="1" parent="cR-O4Dldbzjhlkv826_W-61">
          <mxGeometry width="50" height="50" relative="1" as="geometry">
            <mxPoint x="202" y="845" as="sourcePoint" />
            <mxPoint x="202.07999999999998" y="880.0000000000001" as="targetPoint" />
          </mxGeometry>
        </mxCell>
        <mxCell id="cR-O4Dldbzjhlkv826_W-37" value="" style="endArrow=classic;html=1;" edge="1" parent="cR-O4Dldbzjhlkv826_W-61">
          <mxGeometry width="50" height="50" relative="1" as="geometry">
            <mxPoint x="260.5000000000001" y="809.66" as="sourcePoint" />
            <mxPoint x="359.5" y="810.08" as="targetPoint" />
          </mxGeometry>
        </mxCell>
        <mxCell id="cR-O4Dldbzjhlkv826_W-38" value="" style="endArrow=classic;html=1;" edge="1" parent="cR-O4Dldbzjhlkv826_W-61">
          <mxGeometry width="50" height="50" relative="1" as="geometry">
            <mxPoint x="260.5000000000001" y="914.66" as="sourcePoint" />
            <mxPoint x="359.5" y="915.08" as="targetPoint" />
          </mxGeometry>
        </mxCell>
        <mxCell id="cR-O4Dldbzjhlkv826_W-39" value="" style="endArrow=classic;html=1;exitX=0.5;exitY=1;exitDx=0;exitDy=0;" edge="1" parent="cR-O4Dldbzjhlkv826_W-61" source="cR-O4Dldbzjhlkv826_W-33">
          <mxGeometry width="50" height="50" relative="1" as="geometry">
            <mxPoint x="202" y="955" as="sourcePoint" />
            <mxPoint x="202" y="985" as="targetPoint" />
          </mxGeometry>
        </mxCell>
        <mxCell id="cR-O4Dldbzjhlkv826_W-40" value="" style="endArrow=classic;html=1;" edge="1" parent="cR-O4Dldbzjhlkv826_W-61">
          <mxGeometry width="50" height="50" relative="1" as="geometry">
            <mxPoint x="200" y="985" as="sourcePoint" />
            <mxPoint x="600" y="985" as="targetPoint" />
          </mxGeometry>
        </mxCell>
        <mxCell id="cR-O4Dldbzjhlkv826_W-41" value="" style="endArrow=classic;html=1;" edge="1" parent="cR-O4Dldbzjhlkv826_W-61">
          <mxGeometry width="50" height="50" relative="1" as="geometry">
            <mxPoint x="600" y="985" as="sourcePoint" />
            <mxPoint x="600" y="225" as="targetPoint" />
          </mxGeometry>
        </mxCell>
        <mxCell id="cR-O4Dldbzjhlkv826_W-42" value="" style="endArrow=classic;html=1;" edge="1" parent="cR-O4Dldbzjhlkv826_W-61">
          <mxGeometry width="50" height="50" relative="1" as="geometry">
            <mxPoint x="600" y="225" as="sourcePoint" />
            <mxPoint x="271" y="224.66" as="targetPoint" />
          </mxGeometry>
        </mxCell>
        <mxCell id="cR-O4Dldbzjhlkv826_W-45" value="" style="endArrow=classic;html=1;" edge="1" parent="cR-O4Dldbzjhlkv826_W-61">
          <mxGeometry width="50" height="50" relative="1" as="geometry">
            <mxPoint x="133" y="224.5" as="sourcePoint" />
            <mxPoint x="40" y="225" as="targetPoint" />
          </mxGeometry>
        </mxCell>
        <mxCell id="cR-O4Dldbzjhlkv826_W-47" value="" style="endArrow=classic;html=1;" edge="1" parent="cR-O4Dldbzjhlkv826_W-61">
          <mxGeometry width="50" height="50" relative="1" as="geometry">
            <mxPoint x="40" y="225" as="sourcePoint" />
            <mxPoint x="40" y="325" as="targetPoint" />
          </mxGeometry>
        </mxCell>
        <mxCell id="cR-O4Dldbzjhlkv826_W-48" value="End" style="ellipse;whiteSpace=wrap;html=1;" vertex="1" parent="cR-O4Dldbzjhlkv826_W-61">
          <mxGeometry y="325" width="90" height="50" as="geometry" />
        </mxCell>
        <mxCell id="cR-O4Dldbzjhlkv826_W-49" value="true" style="text;html=1;strokeColor=none;fillColor=none;align=center;verticalAlign=middle;whiteSpace=wrap;rounded=0;" vertex="1" parent="cR-O4Dldbzjhlkv826_W-61">
          <mxGeometry x="290" y="485" width="40" height="20" as="geometry" />
        </mxCell>
        <mxCell id="cR-O4Dldbzjhlkv826_W-51" value="true" style="text;html=1;strokeColor=none;fillColor=none;align=center;verticalAlign=middle;whiteSpace=wrap;rounded=0;" vertex="1" parent="cR-O4Dldbzjhlkv826_W-61">
          <mxGeometry x="290" y="675" width="40" height="20" as="geometry" />
        </mxCell>
        <mxCell id="cR-O4Dldbzjhlkv826_W-52" value="true" style="text;html=1;strokeColor=none;fillColor=none;align=center;verticalAlign=middle;whiteSpace=wrap;rounded=0;" vertex="1" parent="cR-O4Dldbzjhlkv826_W-61">
          <mxGeometry x="290" y="785" width="40" height="20" as="geometry" />
        </mxCell>
        <mxCell id="cR-O4Dldbzjhlkv826_W-53" value="true" style="text;html=1;strokeColor=none;fillColor=none;align=center;verticalAlign=middle;whiteSpace=wrap;rounded=0;" vertex="1" parent="cR-O4Dldbzjhlkv826_W-61">
          <mxGeometry x="280" y="892.5" width="40" height="20" as="geometry" />
        </mxCell>
        <mxCell id="cR-O4Dldbzjhlkv826_W-54" value="" style="endArrow=classic;html=1;exitX=0.5;exitY=1;exitDx=0;exitDy=0;" edge="1" parent="cR-O4Dldbzjhlkv826_W-61">
          <mxGeometry width="50" height="50" relative="1" as="geometry">
            <mxPoint x="201.8" y="265" as="sourcePoint" />
            <mxPoint x="201.8" y="315" as="targetPoint" />
          </mxGeometry>
        </mxCell>
        <mxCell id="cR-O4Dldbzjhlkv826_W-55" value="false" style="text;html=1;strokeColor=none;fillColor=none;align=center;verticalAlign=middle;whiteSpace=wrap;rounded=0;" vertex="1" parent="cR-O4Dldbzjhlkv826_W-61">
          <mxGeometry x="62" y="195" width="40" height="20" as="geometry" />
        </mxCell>
        <mxCell id="cR-O4Dldbzjhlkv826_W-56" value="&lt;span&gt;VWStraight(dis, 250)&lt;/span&gt;" style="rounded=1;whiteSpace=wrap;html=1;" vertex="1" parent="cR-O4Dldbzjhlkv826_W-61">
          <mxGeometry x="141" y="405" width="130" height="30" as="geometry" />
        </mxCell>
        <mxCell id="cR-O4Dldbzjhlkv826_W-58" value="" style="endArrow=classic;html=1;" edge="1" parent="cR-O4Dldbzjhlkv826_W-61">
          <mxGeometry width="50" height="50" relative="1" as="geometry">
            <mxPoint x="266.5" y="504.52" as="sourcePoint" />
            <mxPoint x="360" y="505" as="targetPoint" />
          </mxGeometry>
        </mxCell>
        <mxCell id="cR-O4Dldbzjhlkv826_W-60" value="" style="endArrow=classic;html=1;" edge="1" parent="cR-O4Dldbzjhlkv826_W-61">
          <mxGeometry width="50" height="50" relative="1" as="geometry">
            <mxPoint x="201.79999999999998" y="435" as="sourcePoint" />
            <mxPoint x="202.04" y="465" as="targetPoint" />
          </mxGeometry>
        </mxCell>
      </root>
    </mxGraphModel>
  </diagram>
</mxfile>
